{
    "asset" : {
        "generator" : "Khronos glTF Blender I/O v1.4.40",
        "version" : "2.0"
    },
    "scene" : 0,
    "scenes" : [
        {
            "name" : "Scene",
            "nodes" : [
                0,
                1,
                2,
                3,
                4
            ]
        }
    ],
    "nodes" : [
        {
            "name" : "Light",
            "rotation" : [
                0.16907575726509094,
                0.7558803558349609,
                -0.27217137813568115,
                0.570947527885437
            ],
            "translation" : [
                -0.2314310073852539,
                5.943587303161621,
                -1.0054539442062378
            ]
        },
        {
            "name" : "Camera",
            "rotation" : [
                0.483536034822464,
                0.33687159419059753,
                -0.20870360732078552,
                0.7804827094078064
            ],
            "translation" : [
                7.358891487121582,
                4.958309173583984,
                6.925790786743164
            ]
        },
        {
            "mesh" : 0,
            "name" : "Model",
            "rotation" : [
                0.6581937670707703,
                0.2621862292289734,
                -0.2635323107242584,
                0.6546679139137268
            ],
            "scale" : [
                5.250941753387451,
                5.250941753387451,
                5.250941753387451
            ],
            "translation" : [
                0.04306718707084656,
                3.658949613571167,
                1.7652860879898071
            ]
        },
        {
            "mesh" : 1,
            "name" : "Cube",
            "scale" : [
                0.8068967461585999,
                -0.017102710902690887,
                0.46967613697052
            ],
            "translation" : [
                0,
                1.0320676565170288,
                0
            ]
        },
        {
            "mesh" : 2,
            "name" : "Cube.001",
            "scale" : [
                0.9335455894470215,
                0.4561115503311157,
                -0.6070246696472168
            ],
            "translation" : [
                0,
                0.5503256320953369,
                0
            ]
        }
    ],
    "materials" : [
        {
            "doubleSided" : true,
            "name" : "material0",
            "pbrMetallicRoughness" : {
                "baseColorFactor" : [
                    0.06185675039887428,
                    0.06185675039887428,
                    0.06185675039887428,
                    1
                ]
            }
        },
        {
            "doubleSided" : true,
            "name" : "material0.002",
            "pbrMetallicRoughness" : {
                "baseColorFactor" : [
                    0,
                    0,
                    0,
                    1
                ]
            }
        },
        {
            "doubleSided" : true,
            "name" : "material0.001",
            "pbrMetallicRoughness" : {
                "baseColorFactor" : [
                    0.06185675039887428,
                    0.06185675039887428,
                    0.06185675039887428,
                    1
                ]
            }
        }
    ],
    "meshes" : [
        {
            "name" : "Model",
            "primitives" : [
                {
                    "attributes" : {
                        "POSITION" : 0,
                        "NORMAL" : 1
                    },
                    "indices" : 2,
                    "material" : 0
                }
            ]
        },
        {
            "name" : "Cube",
            "primitives" : [
                {
                    "attributes" : {
                        "POSITION" : 3,
                        "NORMAL" : 4,
                        "TEXCOORD_0" : 5
                    },
                    "indices" : 6,
                    "material" : 1
                }
            ]
        },
        {
            "name" : "Cube.001",
            "primitives" : [
                {
                    "attributes" : {
                        "POSITION" : 7,
                        "NORMAL" : 8,
                        "TEXCOORD_0" : 9
                    },
                    "indices" : 10,
                    "material" : 2
                }
            ]
        }
    ],
    "accessors" : [
        {
            "bufferView" : 0,
            "componentType" : 5126,
            "count" : 507880,
            "max" : [
                0.3952304422855377,
                -0.11105602979660034,
                0.5024175643920898
            ],
            "min" : [
                0.10552548617124557,
                -0.36544468998908997,
                0.24396362900733948
            ],
            "type" : "VEC3"
        },
        {
            "bufferView" : 1,
            "componentType" : 5126,
            "count" : 507880,
            "type" : "VEC3"
        },
        {
            "bufferView" : 2,
            "componentType" : 5125,
            "count" : 761820,
            "type" : "SCALAR"
        },
        {
            "bufferView" : 3,
            "componentType" : 5126,
            "count" : 24,
            "max" : [
                1,
                1,
                1
            ],
            "min" : [
                -1,
                -1,
                -1
            ],
            "type" : "VEC3"
        },
        {
            "bufferView" : 4,
            "componentType" : 5126,
            "count" : 24,
            "type" : "VEC3"
        },
        {
            "bufferView" : 5,
            "componentType" : 5126,
            "count" : 24,
            "type" : "VEC2"
        },
        {
            "bufferView" : 6,
            "componentType" : 5123,
            "count" : 36,
            "type" : "SCALAR"
        },
        {
            "bufferView" : 7,
            "componentType" : 5126,
            "count" : 308,
            "max" : [
                1.165106177330017,
                1,
                1.2830137014389038
            ],
            "min" : [
                -1.165106177330017,
                -1.1563657522201538,
                -1.2830137014389038
            ],
            "type" : "VEC3"
        },
        {
            "bufferView" : 8,
            "componentType" : 5126,
            "count" : 308,
            "type" : "VEC3"
        },
        {
            "bufferView" : 9,
            "componentType" : 5126,
            "count" : 308,
            "type" : "VEC2"
        },
        {
            "bufferView" : 10,
            "componentType" : 5123,
            "count" : 504,
            "type" : "SCALAR"
        }
    ],
    "bufferViews" : [
        {
            "buffer" : 0,
            "byteLength" : 6094560,
            "byteOffset" : 0
        },
        {
            "buffer" : 0,
            "byteLength" : 6094560,
            "byteOffset" : 6094560
        },
        {
            "buffer" : 0,
            "byteLength" : 3047280,
            "byteOffset" : 12189120
        },
        {
            "buffer" : 0,
            "byteLength" : 288,
            "byteOffset" : 15236400
        },
        {
            "buffer" : 0,
            "byteLength" : 288,
            "byteOffset" : 15236688
        },
        {
            "buffer" : 0,
            "byteLength" : 192,
            "byteOffset" : 15236976
        },
        {
            "buffer" : 0,
            "byteLength" : 72,
            "byteOffset" : 15237168
        },
        {
            "buffer" : 0,
            "byteLength" : 3696,
            "byteOffset" : 15237240
        },
        {
            "buffer" : 0,
            "byteLength" : 3696,
            "byteOffset" : 15240936
        },
        {
            "buffer" : 0,
            "byteLength" : 2464,
            "byteOffset" : 15244632
        },
        {
            "buffer" : 0,
            "byteLength" : 1008,
            "byteOffset" : 15247096
        }
    ],
    "buffers" : [
        {
            "byteLength" : 15248104,
            "uri" : "Pegase.bin"
        }
    ]
}
